<?xml version="1.0" encoding="UTF-8"?>
<svg width="453.17mm" height="115.9mm" version="1.1" viewBox="0 0 453.17 115.9" xmlns="http://www.w3.org/2000/svg"><defs><style>.cls-1 {
        fill: none;
      }

      .cls-2 {
        fill: #010101;
      }

      .cls-3 {
        fill: #209fda;
      }

      .cls-4 {
        clip-path: url(#clip-path);
      }

      .cls-5 {
        fill: #f79a22;
      }

      .cls-6 {
        fill: #ffd368;
      }

      .cls-7 {
        fill: #bd7e2c;
      }</style><clipPath id="clip-path"><path class="cls-1" d="m433.05 347a166 166 0 0 0-332 0c0 61.81 117.13 149.82 165.35 200.59 48.19-50.82 166.65-138.83 166.65-200.59z"/></clipPath></defs><g transform="translate(301.77 -43.431)"><g transform="matrix(.26458 0 0 .26458 -328.5 -4.4585)"><path class="cls-2" d="m663.3 299.6a104.27 104.27 0 0 0-56.1-16.8c-57.6 0-98.7 42-98.7 96.3 0 51.9 38.4 96.3 92.1 96.3 54.3 0 90.3-38.7 90.3-90.3a127.08 127.08 0 0 0-0.9-15.3h-92.1v-8.1h100.8c1.2 6 1.8 15.9 1.8 23.7 0 56.1-39.9 98.7-99.9 98.7-58.8 0-101.7-46.5-101.7-105 0-59.7 45.3-105 108.3-105 24.3 0 42 6.3 56.1 14.7z"/><path class="cls-2" d="m739.5 481.1v-155.1h9v147h70.2v8.1z"/><path class="cls-2" d="m915.9 323.9c45.3 0 79.8 34.2 79.8 79.8 0 45.3-34.5 79.8-79.8 79.8s-79.8-34.5-79.8-79.8c0-45.6 34.5-79.8 79.8-79.8zm0 150.6c39.9 0 70.2-30.9 70.2-70.8 0-40.2-30.3-71.1-70.2-71.1s-70.2 30.9-70.2 71.1c0 39.9 30.3 70.8 70.2 70.8z"/><path class="cls-2" d="m1039.2 326h39.3c24.6 0 44.7 14.7 44.7 39.3 0 18-10.2 30-24.9 35.7 17.7 5.1 30.3 18.3 30.3 38.7 0 27.3-21.3 41.4-47.4 41.4h-42zm39.3 8.1h-30.3v63h30.3c18.6 0 35.4-9.3 35.4-31.2s-16.8-31.8-35.4-31.8zm2.7 71.1h-33v67.8h33c20.1 0 37.8-10.2 37.8-33.6s-17.7-34.2-37.8-34.2z"/><path class="cls-2" d="m1250.7 429.2h-68.69l-19.5 51.9h-10.2l59.1-155.1h10.2l59.1 155.1h-10.2zm-65.7-8.1h62.7l-31.2-83.1z"/><path class="cls-2" d="m1318.2 481.1v-155.1h9v147h70.2v8.1z"/><path class="cls-2" d="m1432.8 481.1v-155.1h79.21v8.1h-70.2v65.1h65.7v8.1h-65.7v65.7h70.2v8.1z"/><path class="cls-2" d="m1665.6 326v102.3c0 33-20.7 55.2-53.7 55.2s-53.7-22.2-53.7-55.2v-102.3h9v102.3c0 27.6 18 46.5 45 46.5 26.7 0 44.4-18.9 44.4-46.5v-102.3z"/><path class="cls-2" d="m1718.7 326h39.32c27.6 0 46.5 16.2 46.5 42 0 22.8-15 36.3-35.1 40.5 17.7 7.8 37.2 32.7 44.4 72.6h-9c-8.4-42.6-33-70.5-54.3-70.5h-22.8v70.5h-9zm39.3 8.1h-30.3v68.4h30.32c21 0 37.2-12.3 37.2-33.9s-16.2-34.5-37.2-34.5z"/><g class="cls-4" clip-path="url(#clip-path)"><polygon class="cls-5" points="176.54 623.65 478.33 249.45 522.07 295.5"/><polygon class="cls-6" points="467.18 205.87 165.39 580.07 121.65 534.01"/><polygon class="cls-3" points="-2.08 616.96 437.69 71.69 501.42 138.8"/><polygon class="cls-5" points="373.94 102.5 72.15 476.7 28.41 430.64"/><polygon class="cls-7" points="-29.35 434.13 272.44 59.94 316.18 105.99"/></g><path class="cls-3" d="m279.8 619.05h-25.51a4.74 4.74 0 0 1-4.67-3.93l-7.8-45a2 2 0 0 1 1.94-2.3h46.57a2 2 0 0 1 1.94 2.3l-7.8 45a4.73 4.73 0 0 1-4.67 3.93z"/></g></g></svg>
